<svg xmlns="http://www.w3.org/2000/svg" width="16.05" height="13.272" viewBox="0 0 16.05 13.272">
                        <g transform="translate(8 -105.776)">
                            <g transform="translate(-8 105.776)">
                                <g transform="translate(2.035 0)">
                                    <path className="a"
                                        d="M149.937,106.4a2.742,2.742,0,0,1-.026.383c.007-.044.011-.086.018-.13a2.989,2.989,0,0,1-.2.737l.049-.117a2.929,2.929,0,0,1-.255.47c-.026.039-.054.076-.079.114-.06.084.071-.088.018-.023l-.041.05c-.057.068-.117.133-.178.2s-.128.122-.2.178c-.016.013-.032.028-.05.041-.065.054.1-.071.031-.024-.037.028-.075.054-.114.079a2.844,2.844,0,0,1-.479.26l.117-.049a2.881,2.881,0,0,1-.737.2l.13-.018a3.024,3.024,0,0,1-.766,0l.13.018a2.987,2.987,0,0,1-.737-.2l.117.049a2.928,2.928,0,0,1-.47-.255c-.039-.026-.076-.054-.114-.079-.084-.06.088.071.023.018l-.05-.041c-.068-.057-.133-.117-.2-.178s-.122-.128-.178-.2c-.013-.016-.028-.032-.041-.05-.054-.065.071.1.024.031-.028-.037-.054-.075-.079-.114a2.844,2.844,0,0,1-.26-.479l.049.117a2.881,2.881,0,0,1-.2-.737c.006.044.011.086.018.13a3.025,3.025,0,0,1,0-.766c-.006.044-.011.086-.018.13a2.987,2.987,0,0,1,.2-.737l-.049.117a2.931,2.931,0,0,1,.255-.47c.026-.039.054-.076.079-.114.06-.084-.071.088-.018.023l.041-.05c.057-.068.117-.133.178-.2a2.563,2.563,0,0,1,.2-.178c.016-.013.032-.028.05-.041.065-.054-.1.071-.031.024.037-.028.075-.054.114-.079a2.844,2.844,0,0,1,.479-.26l-.117.049a2.882,2.882,0,0,1,.737-.2l-.13.018a3.024,3.024,0,0,1,.766,0l-.13-.018a2.987,2.987,0,0,1,.737.2l-.117-.049a2.93,2.93,0,0,1,.47.255c.039.026.076.054.114.079.084.06-.088-.071-.023-.018l.05.041c.068.057.133.117.2.178s.122.128.178.2c.013.016.028.032.041.05.054.065-.071-.1-.024-.031.028.037.054.075.079.114a2.843,2.843,0,0,1,.26.479l-.049-.117a2.883,2.883,0,0,1,.2.737c-.007-.044-.011-.086-.018-.13a2.743,2.743,0,0,1,.026.383.487.487,0,1,0,.973,0,3.327,3.327,0,0,0-.6-1.913,3.465,3.465,0,0,0-1.629-1.243,3.357,3.357,0,0,0-3.678,1,3.447,3.447,0,0,0-.78,1.929,3.341,3.341,0,0,0,1.916,3.256,3.46,3.46,0,0,0,2.111.248,3.355,3.355,0,0,0,2.61-2.709,3.693,3.693,0,0,0,.05-.568.486.486,0,1,0-.972,0Z"
                                        transform="translate(-144.211 -103.048)" />
                                </g>
                                <g transform="translate(9.286 1.625)">
                                    <path className="a"
                                        d="M592.374,205.811a2.214,2.214,0,0,1-.019.292c.006-.044.011-.086.018-.13a2.13,2.13,0,0,1-.151.545l.049-.117a2.054,2.054,0,0,1-.188.347c-.019.029-.041.058-.062.088s-.045.06.006-.006.011-.016,0,0c-.042.052-.088.1-.135.149s-.092.088-.141.128c0,0-.034.036-.041.034s.1-.076.049-.037c-.029.021-.057.042-.086.062a2.152,2.152,0,0,1-.355.193l.117-.049a2.266,2.266,0,0,1-.545.151l.13-.018a2.2,2.2,0,0,1-.584,0l.13.018a2.127,2.127,0,0,1-.545-.151l.117.049a2.051,2.051,0,0,1-.347-.188c-.029-.019-.058-.041-.088-.062s-.06-.045.006.006.016.011,0,0c-.052-.042-.1-.088-.149-.135s-.088-.092-.128-.141c0,0-.036-.034-.034-.041s.076.1.037.049c-.021-.029-.042-.057-.062-.086a2.148,2.148,0,0,1-.193-.355l.049.117a2.267,2.267,0,0,1-.151-.545c.006.044.011.086.018.13a2.2,2.2,0,0,1,0-.584c-.007.044-.011.086-.018.13a2.123,2.123,0,0,1,.151-.545l-.049.117a2.058,2.058,0,0,1,.188-.347c.02-.029.041-.058.062-.088s.045-.06-.006.006-.011.016,0,0c.042-.052.088-.1.135-.149s.092-.088.141-.128c0,0,.034-.036.041-.034s-.1.076-.049.037c.029-.021.057-.042.086-.062a2.155,2.155,0,0,1,.355-.193l-.117.049a2.265,2.265,0,0,1,.545-.151l-.13.018a2.2,2.2,0,0,1,.584,0l-.13-.018a2.127,2.127,0,0,1,.545.151l-.117-.049a2.048,2.048,0,0,1,.347.188c.029.019.058.041.088.062s.06.045-.006-.007-.016-.011,0,0c.052.042.1.088.149.135s.088.092.128.141c0,0,.036.034.034.041s-.076-.1-.037-.049c.021.029.042.057.062.086a2.157,2.157,0,0,1,.193.355l-.049-.117a2.267,2.267,0,0,1,.151.545c-.007-.044-.011-.086-.018-.13a2.214,2.214,0,0,1,.019.292.487.487,0,0,0,.973,0,2.616,2.616,0,0,0-.466-1.491,2.719,2.719,0,0,0-1.291-.985,2.626,2.626,0,0,0-2.862.777,2.707,2.707,0,0,0-.618,1.517,2.611,2.611,0,0,0,1.494,2.55,2.71,2.71,0,0,0,1.673.195,2.625,2.625,0,0,0,2.03-2.109,3.289,3.289,0,0,0,.042-.454.488.488,0,0,0-.975,0Z"
                                        transform="translate(-588.103 -203.188)" />
                                </g>
                                <g transform="translate(0 7.19)">
                                    <path
                                        d="M28.578,549.953v.617a5.66,5.66,0,0,1-.006.642c.006-.044.011-.086.018-.13a.654.654,0,0,1-.045.167l.049-.117a1.225,1.225,0,0,1-.06.112c-.037.065.071-.078.032-.039-.015.015-.028.032-.042.047s-.026.024-.039.036c-.058.055.1-.065.031-.026-.037.021-.073.042-.112.06l.117-.049a.845.845,0,0,1-.167.045l.13-.018a2.584,2.584,0,0,1-.3.006H20.963c-.336,0-.67,0-1.006,0a.674.674,0,0,1-.1-.006l.13.018a.651.651,0,0,1-.167-.045l.117.049a1.243,1.243,0,0,1-.112-.06c-.065-.037.078.071.039.032-.015-.015-.032-.028-.047-.042s-.024-.026-.036-.039c-.055-.058.065.1.026.031-.021-.037-.042-.073-.06-.112l.049.117a.88.88,0,0,1-.045-.167c.006.044.011.086.018.13a4.348,4.348,0,0,1-.008-.563v-.667a3.613,3.613,0,0,1,.028-.459c-.006.044-.011.086-.018.13A3.287,3.287,0,0,1,20,548.81l-.049.117a3.337,3.337,0,0,1,.3-.545c.028-.041.057-.081.086-.122.071-.1-.062.076-.011.015l.054-.067a2.849,2.849,0,0,1,.2-.219c.07-.07.143-.136.219-.2l.067-.054c.067-.054-.105.078-.023.018.044-.031.086-.063.13-.092a3.27,3.27,0,0,1,.545-.3l-.117.049a3.286,3.286,0,0,1,.842-.229l-.13.018a4.97,4.97,0,0,1,.641-.028h2.737a5.948,5.948,0,0,1,.759.029l-.13-.018a3.414,3.414,0,0,1,.829.227l-.117-.049a3.2,3.2,0,0,1,.576.316c.044.029.084.062.127.092-.136-.1,0,0,.034.029a2.92,2.92,0,0,1,.221.206c.07.071.138.148.2.226.015.018.031.037.045.057-.016-.019-.031-.041-.047-.06l.029.039c.029.039.057.079.083.118a3.342,3.342,0,0,1,.289.535l-.049-.117a3.318,3.318,0,0,1,.229.837c-.006-.044-.011-.086-.018-.13a3.059,3.059,0,0,1,.031.438.487.487,0,0,0,.973,0,3.686,3.686,0,0,0-.213-1.243,4.013,4.013,0,0,0-.633-1.126,3.7,3.7,0,0,0-2.117-1.3A5.83,5.83,0,0,0,25.4,546.2h-2.58a4.982,4.982,0,0,0-1.191.11,3.768,3.768,0,0,0-2.786,3,8.931,8.931,0,0,0-.058,1.413c0,.156-.01.315,0,.471a1.166,1.166,0,0,0,.894,1.061,2.671,2.671,0,0,0,.534.031h8.164a1.167,1.167,0,0,0,.852-.362,1.212,1.212,0,0,0,.315-.73c0-.055,0-.11,0-.167v-1.071a.487.487,0,0,0-.973,0Z"
                                        transform="translate(-18.784 -546.2)" />
                                </g>
                                <g transform="translate(8.56 7.28)">
                                    <path className="a"
                                        d="M549.855,554.608v.565c0,.19.013.386,0,.576.007-.044.011-.086.018-.13a.464.464,0,0,1-.026.1l.049-.117c-.008.019-.02.037-.028.057-.036.073.088-.1.018-.024s.076-.041.034-.024c-.023.008-.042.024-.065.034l.117-.049a.462.462,0,0,1-.1.026l.13-.018c-.169.015-.342,0-.511,0H545.11l.487.487a9.7,9.7,0,0,0-.016-.972,3.728,3.728,0,0,0-.68-1.838,4.111,4.111,0,0,0-.832-.845q.049.382.1.764c.026-.023.052-.044.078-.065.073-.062-.1.068-.018.015.049-.034.1-.068.148-.1a2.39,2.39,0,0,1,.32-.165l-.117.049a2.412,2.412,0,0,1,.581-.161l-.13.018a3.984,3.984,0,0,1,.521-.023h2.227a4.278,4.278,0,0,1,.558.021l-.13-.018a2.477,2.477,0,0,1,.589.161l-.117-.049a2.455,2.455,0,0,1,.386.208c.029.019.058.041.088.062.07.05-.031-.031-.039-.031.008,0,.034.028.041.034.057.047.112.1.166.149s.1.1.143.157l.034.04c.036.044-.075-.1-.031-.039.021.029.042.057.062.086a2.317,2.317,0,0,1,.214.394l-.049-.117a2.314,2.314,0,0,1,.161.589c-.006-.044-.011-.086-.018-.13a2.3,2.3,0,0,1,.021.316.487.487,0,1,0,.973,0,2.812,2.812,0,0,0-.964-2.116,2.878,2.878,0,0,0-1.882-.693h-2.442a4.235,4.235,0,0,0-.641.041,2.807,2.807,0,0,0-1.423.68.468.468,0,0,0-.135.409.513.513,0,0,0,.232.355c-.008-.007-.091-.073-.041-.031l.037.031.083.07c.052.045.1.093.149.14s.1.1.141.149a1.373,1.373,0,0,0,.131.157c-.008-.006-.07-.094-.032-.041l.029.039c.02.026.037.052.055.08.039.057.075.115.11.174a3.117,3.117,0,0,1,.191.381l-.049-.117a3.319,3.319,0,0,1,.229.837c-.006-.044-.011-.086-.018-.13a8.433,8.433,0,0,1,.029,1.072.493.493,0,0,0,.487.487h4.681a1.193,1.193,0,0,0,.493-.071.885.885,0,0,0,.543-.81c0-.08,0-.161,0-.242v-.855a.492.492,0,0,0-.487-.487A.5.5,0,0,0,549.855,554.608Z"
                                        transform="translate(-543.339 -551.8)" />
                                </g>
                            </g>
                        </g>
                    </svg>