<svg xmlns="http://www.w3.org/2000/svg" width="16.047" height="16.047" viewBox="0 0 16.047 16.047">
                        <g transform="translate(0 0)">
                            <path d="M21.43,54H6.617a.617.617,0,1,0,0,1.234H21.43a.617.617,0,1,0,0-1.234Z"
                                transform="translate(-6 -39.187)" />
                            <path
                                d="M10.617,26a.617.617,0,0,0-.617.617v6.172a.617.617,0,0,0,.617.617h2.469a.617.617,0,0,0,.617-.617V26.617A.617.617,0,0,0,13.086,26Zm1.852,6.172H11.234V27.234h1.234Z"
                                transform="translate(-8.765 -19.828)" />
                            <path
                                d="M26.617,26a.617.617,0,0,0-.617.617v6.172a.617.617,0,0,0,.617.617h2.469a.617.617,0,0,0,.617-.617V26.617A.617.617,0,0,0,29.086,26Zm1.852,6.172H27.234V27.234h1.234Z"
                                transform="translate(-19.828 -19.828)" />
                            <path
                                d="M42.617,26a.617.617,0,0,0-.617.617v6.172a.617.617,0,0,0,.617.617h2.469a.617.617,0,0,0,.617-.617V26.617A.617.617,0,0,0,45.086,26Zm1.852,6.172H43.234V27.234h1.234Z"
                                transform="translate(-30.89 -19.828)" />
                            <path
                                d="M6.617,10.937H21.429a.617.617,0,0,0,.276-1.17L14.3,6.064a.618.618,0,0,0-.552,0l-7.406,3.7a.617.617,0,0,0,.276,1.17Zm7.406-3.63,4.792,2.4H9.231Z"
                                transform="translate(-5.999 -5.999)" />
                        </g>
                    </svg>